<?xml version="1.0" standalone="no"?>
<!DOCTYPE svg PUBLIC "-//W3C//DTD SVG 20010904//EN"
 "http://www.w3.org/TR/2001/REC-SVG-20010904/DTD/svg10.dtd">
<svg version="1.0" xmlns="http://www.w3.org/2000/svg"
 width="768.000000pt" height="1024.000000pt" viewBox="0 0 768.000000 1024.000000"
 preserveAspectRatio="xMidYMid meet">

<g transform="translate(0.000000,1024.000000) scale(0.100000,-0.100000)"
fill="#3a5a78" stroke="none">
<path d="M1170 9122 c-25 -16 -63 -47 -86 -70 l-41 -41 -7 -333 c-5 -272 -4
-334 7 -345 11 -12 346 -73 747 -138 47 -7 207 -34 355 -60 149 -25 405 -68
570 -96 165 -27 308 -51 318 -53 9 -2 17 -1 17 3 0 4 -73 20 -162 34 -90 15
-336 57 -548 93 -212 36 -556 94 -765 129 -209 36 -414 70 -455 78 l-75 13 3
334 3 335 43 40 c23 22 61 52 82 68 l40 27 115 -26 c63 -14 175 -39 249 -55
74 -17 182 -41 240 -54 135 -31 654 -146 963 -214 72 -16 161 -36 197 -45 168
-39 211 -48 216 -44 3 3 -8 8 -23 11 -15 3 -98 22 -183 42 -190 44 -606 138
-755 170 -60 13 -191 43 -290 65 -99 22 -229 52 -290 65 -60 13 -173 38 -250
55 -77 17 -151 33 -165 36 -17 3 -39 -4 -70 -24z"/>
<path d="M1147 8823 c-8 -268 -17 -334 -53 -405 -13 -26 -20 -48 -16 -48 5 0
22 27 36 61 23 51 29 83 37 197 5 75 8 205 7 287 -3 145 -3 141 -11 -92z"/>
<path d="M3228 8520 c8 -266 -24 -421 -101 -492 -22 -21 -36 -38 -30 -38 6 0
28 19 50 43 71 77 93 184 93 449 0 97 -4 179 -8 182 -4 2 -6 -62 -4 -144z"/>
<path d="M6618 8450 c-4 -96 -12 -377 -18 -625 -6 -247 -13 -510 -16 -582 -6
-128 -7 -133 -28 -133 -43 -1 -203 -48 -263 -78 -107 -55 -190 -153 -212 -253
-14 -62 -6 -60 13 3 43 147 160 242 364 294 161 41 293 30 429 -37 73 -35 149
-107 174 -164 16 -37 36 -135 28 -135 -2 0 -29 7 -59 15 -147 40 -573 39 -765
0 -108 -23 -188 -48 -193 -63 -12 -38 194 -72 445 -72 263 0 488 34 561 85 49
35 18 165 -59 249 -87 96 -227 156 -362 156 l-60 0 7 313 c3 171 11 499 17
727 6 228 9 429 7 445 -2 17 -6 -49 -10 -145z m335 -1695 c134 -20 145 -28 82
-56 -131 -58 -536 -87 -767 -55 -119 17 -178 32 -178 46 0 17 206 62 335 73
119 11 438 6 528 -8z"/>
<path d="M2 8515 c3 -3 61 -15 129 -25 68 -11 185 -30 259 -43 l135 -24 -2
-604 c-1 -332 -7 -1016 -12 -1519 -6 -503 -13 -1093 -15 -1310 -3 -263 -1
-358 4 -285 7 92 16 768 43 3495 l2 234 -105 17 c-58 10 -172 29 -253 43 -146
26 -195 31 -185 21z"/>
<path d="M0 8382 c0 -5 95 -19 210 -32 l211 -24 -7 -841 c-3 -462 -7 -845 -9
-851 -2 -7 -35 -7 -112 2 -184 20 -268 26 -261 19 7 -7 379 -48 384 -42 4 4
20 1701 17 1713 -2 6 -85 20 -196 33 -106 12 -202 24 -214 27 -13 2 -23 1 -23
-4z"/>
<path d="M3486 7921 c-2 -3 -7 -105 -10 -226 -3 -121 -9 -299 -12 -395 -3
-112 -1 -170 5 -160 5 8 12 185 16 393 l8 378 46 -7 c25 -3 107 -17 181 -31
74 -13 198 -35 275 -48 77 -14 203 -36 280 -50 151 -27 173 -29 137 -14 -22 8
-144 31 -512 94 -74 13 -184 32 -245 43 -153 28 -165 30 -169 23z"/>
<path d="M4690 7780 c-242 -29 -586 -158 -795 -296 -243 -160 -415 -355 -572
-644 -138 -256 -175 -364 -318 -935 -25 -99 -58 -227 -74 -285 -109 -394 -151
-573 -187 -809 -16 -96 -21 -115 -39 -121 -11 -4 -81 -24 -155 -45 -167 -46
-235 -81 -305 -157 -74 -79 -98 -124 -144 -264 -68 -207 -169 -447 -376 -899
-301 -655 -384 -883 -499 -1370 -56 -239 -115 -592 -116 -692 l0 -52 -53 -23
c-28 -13 -101 -42 -161 -63 -117 -43 -166 -79 -192 -141 -17 -41 -17 -127 0
-174 12 -34 11 -37 -25 -76 -64 -71 -77 -167 -34 -243 23 -39 24 -46 11 -60
-39 -43 -40 -153 -1 -209 23 -31 87 -62 145 -69 44 -5 48 -8 40 -24 -11 -20
-13 -89 -4 -113 12 -32 21 -14 17 36 -6 73 16 103 127 174 129 83 171 115 165
124 -5 8 -214 -127 -255 -165 -23 -22 -29 -23 -84 -14 -32 5 -71 16 -86 24
-62 32 -90 102 -70 174 15 58 72 101 245 186 144 71 227 126 214 140 -4 3 -30
-11 -58 -32 -27 -21 -94 -58 -148 -82 -54 -24 -122 -59 -151 -77 -29 -19 -57
-34 -62 -34 -6 0 -19 15 -30 33 -25 41 -26 109 -1 163 26 58 84 102 234 179
152 78 258 147 245 160 -3 3 -34 -14 -69 -38 -55 -38 -315 -177 -332 -177 -11
0 -29 71 -29 114 0 50 22 104 55 134 12 11 101 52 197 90 96 39 225 91 285
116 184 76 204 73 650 -114 381 -160 408 -170 495 -196 125 -36 179 -42 455
-54 322 -13 638 -29 693 -36 32 -4 42 -9 38 -19 -23 -62 -62 -338 -76 -550 -9
-125 -4 -275 9 -275 3 0 6 75 7 168 2 316 73 730 123 720 21 -5 20 -27 -12
-178 -43 -204 -70 -596 -47 -685 5 -18 8 24 9 111 1 179 25 414 56 571 14 67
25 125 25 128 0 3 98 5 218 5 383 0 599 23 972 102 129 27 276 56 325 64 50 8
135 23 190 34 87 16 236 33 598 69 49 5 93 13 99 19 6 6 15 67 20 134 8 129
43 425 58 493 26 120 101 569 115 685 8 74 15 213 15 309 0 159 2 179 22 220
41 88 209 233 379 328 207 117 650 237 718 194 31 -20 40 -1638 11 -2101 -16
-264 -49 -583 -76 -719 -23 -121 -30 -191 -18 -179 14 15 66 344 84 532 38
401 43 569 45 1313 l1 733 44 28 c65 41 142 130 163 188 34 95 24 123 -103
303 -49 70 -97 147 -105 171 -9 24 -26 112 -40 194 -60 368 -181 601 -369 711
-61 36 -168 75 -205 75 -16 0 -55 15 -87 32 -58 32 -62 33 -198 35 -76 2 -157
8 -180 15 -24 7 -111 12 -216 13 -238 1 -302 23 -357 122 l-23 40 30 39 c45
59 88 179 96 267 4 42 11 77 17 77 15 0 1 -130 -23 -225 -17 -66 -40 -123 -78
-198 -2 -4 3 -4 11 -1 22 8 58 67 93 149 20 48 30 63 32 49 5 -35 -27 -156
-54 -201 -33 -58 -8 -58 28 0 37 59 55 138 74 323 20 187 11 358 -31 639 -14
94 -33 235 -41 315 -45 441 -100 620 -269 875 -67 100 -232 225 -298 225 -14
0 -17 4 -12 18 4 9 10 41 13 69 9 97 -62 198 -180 259 -27 13 -69 35 -95 48
-99 50 -258 73 -393 56z m-151 -729 c64 -25 141 -47 199 -57 207 -33 352 -155
475 -399 42 -85 46 -101 52 -240 3 -91 11 -131 42 -230 32 -102 38 -134 38
-212 0 -50 -3 -94 -6 -97 -8 -9 -126 33 -140 50 -6 8 -17 14 -23 14 -6 0 -43
20 -81 45 -106 68 -211 120 -305 151 -70 22 -103 27 -190 28 -118 0 -178 -19
-237 -76 l-32 -31 -63 31 c-78 39 -155 56 -224 49 l-52 -5 -17 45 c-42 110
-148 180 -340 227 -36 9 -49 15 -33 15 58 2 138 -23 257 -80 149 -71 161 -73
161 -21 0 20 -4 42 -8 47 -21 28 -167 100 -243 119 -82 20 -118 20 -169 0 -23
-9 -44 -14 -47 -10 -9 9 64 193 101 251 143 231 336 367 595 421 104 21 171
13 290 -35z m-1092 -736 c-21 -8 -50 -23 -65 -34 -36 -25 -79 -105 -88 -160
-9 -54 -24 -35 -24 32 0 46 -24 87 -51 87 -6 0 -9 12 -7 28 3 25 7 27 63 34
33 4 78 11 100 16 22 6 56 10 75 10 l35 1 -38 -14z m297 -23 c99 -39 148 -73
185 -129 81 -123 58 -278 -62 -409 -82 -90 -168 -122 -277 -102 -102 18 -178
74 -237 175 l-26 45 22 72 c13 39 47 114 76 166 28 52 63 124 75 159 l24 64
71 -6 c44 -3 101 -17 149 -35z m1045 -237 c185 -63 262 -156 246 -296 -15
-132 -118 -274 -240 -330 -60 -29 -72 -31 -153 -27 -67 2 -97 8 -132 26 -128
67 -212 210 -214 367 -1 72 2 87 32 148 37 75 80 110 162 134 67 19 209 9 299
-22z m-608 -11 c83 -24 138 -59 132 -84 -7 -26 -20 -26 -28 1 -4 13 -29 31
-63 47 -46 21 -73 26 -139 26 -60 1 -83 5 -83 14 0 18 114 16 181 -4z m-915
-12 c19 -13 35 -146 38 -323 4 -185 24 -311 82 -517 15 -51 25 -94 23 -96 -2
-1 -28 0 -56 2 l-53 4 0 46 c0 95 -39 353 -85 567 -5 22 11 244 21 293 7 33
11 37 30 24z m71 -10 c9 -6 9 -18 1 -50 -12 -50 -23 -54 -32 -11 -13 64 -3 83
31 61z m879 -35 c63 -32 76 -58 64 -131 -21 -131 38 -298 139 -389 70 -63 124
-82 236 -82 90 0 105 3 155 28 74 39 155 119 191 190 16 31 36 57 44 57 8 0
26 24 40 54 35 73 68 82 179 45 l64 -20 7 -69 c9 -85 31 -120 78 -120 44 0 53
8 78 65 43 99 84 131 109 86 36 -69 -11 -218 -138 -431 -68 -114 -99 -148
-163 -180 -54 -28 -169 -52 -169 -36 0 4 18 46 41 93 52 109 71 163 58 163 -6
0 -15 -15 -21 -32 -6 -18 -40 -88 -74 -156 -167 -325 -311 -471 -599 -612 -55
-26 -148 -63 -205 -81 -91 -27 -121 -32 -220 -33 -150 -1 -179 11 -238 100
-45 68 -116 127 -215 179 -66 35 -86 67 -160 255 -110 280 -164 515 -174 748
-4 103 -3 142 6 142 6 0 11 -4 11 -9 0 -5 23 -35 52 -66 71 -78 132 -107 234
-113 73 -4 88 -1 142 23 103 46 187 153 217 275 9 36 18 71 21 79 8 24 149 9
210 -22z m912 -103 c49 -28 62 -41 62 -59 0 -20 -7 -25 -37 -31 -49 -9 -62
-20 -85 -73 -10 -24 -20 -42 -22 -40 -3 2 0 27 5 54 13 67 2 137 -27 180 -32
47 -30 51 9 26 17 -12 60 -38 95 -57z m212 -112 c0 -10 -8 -12 -32 -7 -50 12
-97 29 -98 38 -1 34 1 34 65 9 36 -15 65 -32 65 -40z m-2295 -529 c12 -128
-29 -394 -71 -460 -8 -13 -35 -28 -66 -38 -80 -24 -82 -23 -74 37 7 52 26 104
130 358 31 74 56 143 56 153 0 9 4 17 9 17 5 0 12 -30 16 -67z m2815 19 c0
-46 -74 -232 -87 -219 -7 8 70 227 80 227 4 0 7 -4 7 -8z m-2440 -186 c0 -2 3
-11 6 -20 5 -13 -3 -16 -51 -16 -56 0 -95 12 -95 30 0 6 32 10 70 10 39 0 70
-2 70 -4z m71 -184 c27 -67 56 -133 65 -147 21 -32 16 -31 -56 5 -33 17 -60
26 -60 21 0 -6 59 -40 132 -76 158 -80 206 -112 251 -168 40 -49 120 -177 114
-183 -10 -11 -164 73 -243 132 -102 76 -98 74 -264 121 -69 19 -153 50 -188
69 -69 37 -72 38 -72 24 0 -19 145 -82 243 -107 128 -31 185 -58 275 -127 40
-31 107 -72 147 -91 71 -33 74 -36 65 -60 -5 -14 -7 -31 -4 -38 6 -18 89 -57
117 -56 15 0 4 8 -33 25 -66 30 -79 45 -61 72 6 10 22 8 74 -13 57 -23 67 -31
67 -52 0 -40 -42 -73 -93 -73 -72 0 -244 61 -387 138 -30 17 -78 35 -106 41
-43 9 -112 32 -196 66 -26 11 -22 -10 4 -22 21 -9 18 -11 -31 -28 -53 -17
-164 -18 -203 0 -11 4 -18 3 -18 -3 0 -6 12 -15 28 -20 l27 -10 -50 -22 c-27
-12 -63 -27 -80 -34 -16 -7 -60 -35 -96 -63 -136 -103 -172 -123 -223 -123
-64 0 -107 20 -161 76 -50 51 -70 54 -34 5 23 -31 70 -67 122 -93 25 -12 26
-16 13 -33 -14 -19 -15 -19 -75 12 -34 17 -61 27 -61 22 0 -13 61 -49 82 -49
26 0 30 -17 12 -51 -63 -123 -143 -507 -223 -1079 -45 -315 -71 -690 -71
-1020 0 -168 -26 -335 -70 -448 -18 -46 -29 -86 -26 -89 9 -9 10 -6 44 84 51
133 62 217 72 563 9 311 20 507 41 687 9 77 16 102 46 153 35 58 37 60 77 60
188 0 637 -200 776 -344 l35 -37 -35 -67 c-47 -91 -142 -255 -231 -398 -140
-226 -548 -829 -605 -894 -31 -36 -72 -82 -91 -103 l-35 -39 -51 22 c-29 12
-88 37 -132 55 -44 18 -152 63 -240 100 -253 106 -327 128 -410 122 -50 -3
-96 -15 -160 -41 -136 -56 -126 -56 -119 0 55 461 175 983 309 1339 54 144
113 279 375 860 143 317 234 536 290 705 23 67 54 148 70 180 35 70 125 169
183 203 38 23 292 107 322 107 38 0 337 98 449 147 81 37 125 43 189 30 45
-10 50 6 6 19 -17 5 -31 11 -31 14 -1 3 2 39 6 80 l7 75 70 -5 71 -5 49 -123z
m1587 -47 c-38 -348 -71 -440 -254 -696 -107 -152 -159 -268 -172 -391 l-7
-63 -45 -12 c-64 -16 -186 -16 -255 2 -76 19 -193 76 -224 109 l-24 25 27 7
c58 14 55 40 -31 231 -46 104 -46 104 -30 139 29 60 23 78 -34 105 -31 14 -61
37 -75 58 -13 19 -22 36 -21 37 2 2 23 -4 47 -13 92 -32 308 -1 475 68 155 64
309 158 409 250 62 56 155 173 200 252 15 26 29 47 30 47 1 0 -6 -70 -16 -155z
m1252 -37 c19 -6 105 -14 190 -17 148 -6 158 -7 215 -37 33 -17 81 -34 107
-37 26 -4 82 -21 125 -39 110 -46 221 -156 285 -283 63 -124 104 -259 133
-441 14 -85 33 -176 44 -203 10 -26 49 -92 87 -145 115 -162 134 -197 134
-242 0 -83 -81 -200 -177 -256 l-30 -17 -7 196 c-4 107 -5 197 -3 199 7 7 126
-37 138 -52 13 -16 29 -19 29 -4 0 16 -59 48 -120 66 -72 22 -203 21 -309 -1
-106 -21 -311 -91 -427 -145 -233 -108 -474 -321 -474 -420 0 -43 -17 -8 -23
47 -4 32 -16 86 -27 121 -11 35 -17 74 -14 87 3 13 1 32 -5 42 -17 30 -14 -97
5 -148 8 -24 18 -75 21 -112 5 -54 10 -70 26 -79 19 -10 19 -17 13 -177 -9
-206 -34 -404 -91 -715 -24 -132 -49 -266 -54 -296 -15 -80 -39 -308 -47 -438
-5 -89 -10 -115 -23 -121 -9 -5 -74 -14 -146 -20 -403 -35 -691 -81 -1148
-182 -241 -53 -517 -79 -852 -79 -219 0 -220 0 -230 23 -14 32 -49 33 -73 3
l-20 -26 -243 15 c-134 8 -356 19 -494 25 -277 11 -323 17 -461 56 -136 39
-135 37 -63 114 92 99 132 153 326 445 306 459 409 623 547 873 32 56 63 102
70 102 20 0 39 27 61 89 l20 56 45 0 45 0 24 -60 c26 -65 55 -221 71 -383 36
-351 190 -605 440 -725 30 -15 170 -117 310 -227 140 -111 281 -221 313 -246
31 -25 57 -40 57 -34 0 9 -114 103 -418 340 -67 52 -122 98 -122 101 0 3 12 4
28 2 31 -4 31 -4 -143 77 -118 55 -206 125 -268 212 -100 141 -153 292 -176
498 -28 245 -50 349 -96 440 -12 25 -29 68 -38 95 -9 28 -35 106 -60 176 -24
69 -49 145 -55 170 -6 24 -18 53 -27 64 l-16 20 4 -20 c13 -56 82 -267 116
-357 42 -110 41 -127 -7 -120 -23 3 -31 -2 -48 -35 -12 -21 -27 -55 -34 -75
-8 -27 -17 -38 -31 -38 -10 0 -19 6 -19 14 0 19 -79 89 -163 144 -200 130
-568 257 -688 238 -22 -3 -39 -4 -39 0 0 3 53 112 117 243 l116 238 102 11
c90 10 142 24 310 86 l20 8 -20 -17 c-11 -9 -44 -30 -72 -47 -75 -43 -69 -52
30 -44 192 16 319 52 436 122 30 18 57 32 59 29 8 -7 -82 -129 -145 -196 -36
-38 -63 -72 -59 -76 13 -13 153 29 225 67 41 22 77 37 80 35 7 -7 -19 -143
-39 -200 -10 -28 -29 -74 -44 -102 -14 -29 -26 -57 -26 -63 0 -18 88 51 152
119 56 59 127 181 129 221 0 8 5 2 10 -15 18 -58 -14 -259 -51 -323 -21 -34
-26 -62 -12 -62 4 0 24 14 45 31 83 68 183 230 211 339 13 52 14 53 21 26 10
-37 -2 -171 -20 -232 -20 -66 -19 -71 9 -45 54 50 114 201 137 339 13 79 13
321 0 375 -9 36 1 62 12 33 10 -25 119 -92 197 -122 66 -24 89 -28 190 -28 96
-1 127 3 185 23 80 27 143 58 198 95 20 14 37 23 37 21 0 -28 -67 -313 -91
-385 -88 -271 -293 -552 -462 -635 -115 -56 -39 -58 130 -4 137 44 252 137
347 284 l46 69 0 -48 c0 -54 32 -222 56 -294 44 -131 117 -255 241 -410 35
-43 67 -50 40 -9 -26 40 -78 166 -106 260 -49 159 -50 210 -4 129 30 -54 104
-133 178 -192 76 -61 288 -164 369 -180 115 -23 333 -10 261 16 -62 22 -94 38
-157 80 -38 25 -67 48 -65 50 2 3 28 -1 58 -7 60 -13 216 -7 245 9 16 9 16 12
4 16 -181 61 -239 93 -345 191 -73 67 -73 83 -1 40 47 -27 165 -55 229 -54 51
1 119 20 118 34 0 6 -29 13 -63 18 -38 4 -89 20 -128 40 -53 26 -75 45 -118
102 -70 93 -118 180 -148 268 -27 78 -26 78 35 -6 24 -32 68 -77 98 -100 31
-23 87 -73 124 -112 68 -71 182 -159 192 -148 3 3 -16 33 -43 66 -42 52 -110
163 -110 180 0 3 24 -10 53 -30 44 -30 128 -73 143 -73 15 0 -2 25 -41 61
-114 105 -227 335 -281 570 -23 103 -46 270 -38 278 2 2 18 -7 36 -21 97 -74
262 -126 363 -113 101 12 221 57 184 69 -8 2 -40 7 -73 10 -42 3 -86 18 -160
55 -158 77 -252 180 -311 341 -35 96 -31 159 16 256 44 94 175 224 276 277
124 65 264 91 343 65z m-2973 -443 c33 -14 35 -17 21 -33 -30 -34 -67 -122
-51 -122 5 0 21 27 36 60 16 33 32 60 38 60 5 0 23 -7 38 -14 15 -8 51 -18 80
-22 29 -4 100 -28 159 -54 93 -41 110 -53 129 -86 38 -66 29 -84 -49 -98 -47
-8 -130 6 -255 45 -116 35 -161 36 -283 3 -119 -32 -288 -42 -395 -24 -50 9
-75 17 -75 26 0 8 4 14 9 14 6 0 46 27 90 60 44 33 110 74 148 91 37 16 81 37
96 45 16 7 45 14 65 14 44 0 152 29 152 41 0 12 5 11 47 -6z m1594 -246 c-22
-112 -43 -222 -47 -244 -6 -39 -38 -76 -79 -92 -16 -6 -17 0 -10 73 11 125 40
219 106 352 33 68 63 122 65 119 3 -2 -13 -96 -35 -208z m-74 48 c-39 -60 -95
-306 -84 -373 5 -31 3 -34 -46 -58 -65 -33 -89 -34 -83 -3 3 12 10 49 17 82 6
33 24 89 41 125 33 75 146 250 160 250 6 0 3 -11 -5 -23z m-980 -8 c24 -7 63
-9 88 -7 l44 5 27 -66 c15 -36 31 -70 35 -76 4 -5 20 -41 35 -79 26 -66 27
-69 9 -82 -28 -21 -88 -17 -119 7 -30 24 -97 123 -156 231 -44 81 -47 93 -24
84 9 -4 36 -11 61 -17z m-1247 -98 c0 -5 -20 -25 -45 -45 -53 -44 -57 -39 -14
15 28 36 59 52 59 30z m-11 -191 c-32 -40 -133 -120 -151 -120 -12 0 -10 25 7
68 14 34 22 41 73 57 31 9 66 24 76 31 32 22 30 8 -5 -36z m5 -131 c-72 -93
-196 -211 -208 -198 -5 6 27 151 37 167 5 6 16 12 26 12 24 0 128 46 159 71
42 32 37 13 -14 -52z m-96 -274 c-21 -14 -49 -30 -63 -35 -36 -14 -24 -26 30
-34 25 -4 45 -8 45 -9 0 -1 -50 -101 -110 -222 -106 -212 -110 -218 -105 -165
5 50 59 392 71 448 3 18 12 22 42 23 20 1 51 5 67 9 55 14 60 10 23 -15z
m-211 -612 c-9 -21 -13 -23 -15 -9 -5 24 6 49 18 41 6 -3 5 -16 -3 -32z"/>
<path d="M4509 6236 c-2 -2 -21 -6 -42 -9 -39 -5 -66 -29 -67 -58 0 -36 25
-41 207 -43 210 -3 272 -16 381 -81 39 -24 72 -40 72 -36 0 30 -123 156 -183
187 -26 14 -80 29 -120 34 -72 9 -240 13 -248 6z"/>
<path d="M3615 6195 c-22 -8 -41 -15 -42 -15 -2 0 -3 -4 -3 -9 0 -6 16 -3 35
5 70 29 167 10 237 -46 47 -38 60 -38 24 -1 -59 61 -179 93 -251 66z"/>
<path d="M3590 6140 c-19 -11 -43 -19 -52 -20 -10 0 -18 -5 -18 -10 0 -21 33
-22 75 -2 24 11 60 24 80 28 35 6 37 6 26 -14 -30 -56 10 -132 71 -132 28 0
78 38 78 60 0 22 21 8 37 -25 19 -39 38 -48 28 -12 -11 36 -76 98 -130 123
-63 30 -145 32 -195 4z"/>
<path d="M4615 5990 c-41 -6 -131 -48 -122 -56 3 -3 23 4 45 15 89 45 186 37
280 -25 60 -39 82 -40 30 -1 -74 56 -154 78 -233 67z"/>
<path d="M4565 5937 c-64 -21 -141 -77 -106 -77 4 0 19 8 32 18 32 24 75 42
101 42 16 0 19 -4 14 -24 -7 -29 8 -74 32 -92 9 -8 34 -14 55 -14 42 0 73 24
83 65 3 14 9 25 11 25 3 0 25 -18 49 -40 42 -38 67 -49 78 -32 6 9 -97 92
-145 117 -43 23 -152 29 -204 12z"/>
<path d="M4031 5900 c-13 -41 -40 -107 -62 -146 -40 -73 -46 -90 -30 -79 20
11 90 152 106 212 25 90 12 101 -14 13z"/>
<path d="M5530 5620 c0 -5 5 -10 10 -10 16 0 11 -63 -10 -125 -23 -68 -20 -98
4 -42 39 90 45 187 11 187 -8 0 -15 -4 -15 -10z"/>
<path d="M3796 5498 c-19 -27 -20 -96 -2 -120 21 -28 28 -21 11 12 -20 38 -19
58 5 98 22 36 10 45 -14 10z"/>
<path d="M5336 5468 c-10 -13 -16 -44 -16 -74 0 -34 -5 -56 -15 -64 -29 -24
-57 -71 -51 -85 5 -13 13 -11 53 9 27 13 65 31 86 40 47 20 69 67 65 134 l-3
47 -12 -64 c-15 -75 -32 -97 -87 -112 -23 -6 -51 -20 -63 -32 -36 -32 -27 -9
12 34 30 33 35 46 35 87 0 26 7 59 14 75 18 32 4 36 -18 5z"/>
<path d="M3845 5411 c-6 -11 0 -17 75 -72 50 -38 58 -40 100 -34 71 10 133 11
158 2 36 -13 28 18 -9 34 -26 10 -39 10 -73 0 -22 -7 -59 -15 -81 -18 -37 -4
-45 0 -98 46 -63 55 -63 55 -72 42z"/>
<path d="M4310 5350 c0 -42 -26 -80 -54 -80 -8 0 -18 -4 -21 -10 -14 -23 39
-8 66 19 23 23 29 39 29 70 0 23 -4 41 -10 41 -5 0 -10 -18 -10 -40z"/>
<path d="M3781 5079 c-38 -15 -19 -20 36 -10 56 11 83 6 130 -21 28 -17 37
-18 72 -7 38 11 44 10 120 -28 87 -43 111 -41 35 3 -76 45 -120 56 -164 43
-34 -10 -42 -9 -68 10 -33 23 -116 28 -161 10z"/>
<path d="M3665 5031 c-7 -13 -5 -14 95 -36 41 -9 110 -28 153 -41 45 -14 103
-24 137 -24 36 0 103 -12 167 -30 59 -17 115 -28 123 -24 27 11 -219 73 -291
74 -37 0 -86 7 -110 16 -24 8 -87 26 -139 38 -52 13 -102 27 -111 30 -10 4
-20 3 -24 -3z"/>
<path d="M3760 4904 c0 -57 165 -134 285 -134 58 0 162 23 178 39 15 15 2 14
-75 -5 -122 -32 -267 -1 -347 74 -33 32 -41 37 -41 26z"/>
<path d="M6464 4463 c-64 -74 -133 -171 -179 -253 -53 -93 -117 -256 -113
-288 3 -22 7 -16 22 33 44 145 145 325 263 468 75 91 81 126 7 40z"/>
<path d="M6226 4303 c-70 -179 -107 -305 -121 -405 -11 -80 11 -54 25 29 14
88 53 221 99 336 34 85 35 87 23 87 -4 0 -16 -21 -26 -47z"/>
<path d="M6361 3916 c-74 -119 -155 -324 -179 -456 -18 -94 -23 -158 -13 -164
5 -3 12 22 16 57 17 158 73 330 160 493 30 57 51 104 46 104 -5 0 -19 -15 -30
-34z"/>
<path d="M7175 3763 c-70 -9 -236 -55 -319 -88 -119 -47 -284 -136 -376 -203
-81 -59 -190 -160 -190 -176 0 -6 19 8 43 30 141 134 329 251 527 329 101 39
254 81 330 91 66 8 102 24 50 22 -19 0 -48 -3 -65 -5z"/>
<path d="M4750 3585 c-96 -43 -188 -59 -314 -53 -75 4 -120 12 -176 32 -112
40 -123 40 -45 1 39 -19 94 -39 124 -45 77 -14 226 -12 298 5 69 16 186 66
197 84 11 17 -2 13 -84 -24z"/>
<path d="M6054 3535 c7 -102 66 -338 82 -323 3 3 -9 57 -25 119 -17 63 -33
146 -37 184 -10 102 -27 119 -20 20z"/>
<path d="M3036 3156 c3 -7 23 -28 45 -46 47 -37 171 -184 214 -252 30 -48 50
-64 38 -30 -20 55 -119 179 -222 280 -62 61 -86 76 -75 48z"/>
<path d="M2610 3092 c0 -5 42 -21 93 -36 121 -37 356 -151 441 -215 67 -51
109 -63 51 -14 -110 91 -330 202 -493 248 -31 9 -65 18 -74 21 -10 3 -18 1
-18 -4z"/>
<path d="M3101 2163 c1 -10 20 -25 282 -227 120 -93 220 -166 223 -163 6 5
-40 43 -221 182 -64 50 -153 118 -198 153 -83 64 -87 67 -86 55z"/>
<path d="M4740 1310 c-31 -4 -2 -8 90 -13 74 -4 194 -15 265 -25 147 -18 492
-22 540 -5 22 8 -13 9 -135 5 -124 -3 -215 1 -370 16 -234 24 -326 29 -390 22z"/>
<path d="M4042 4008 c-7 -7 -12 -21 -12 -32 1 -34 44 -111 64 -114 16 -4 15 0
-7 30 -36 47 -44 84 -22 108 15 16 15 20 4 20 -8 0 -20 -5 -27 -12z"/>
<path d="M5340 7603 c0 -8 120 -29 610 -104 107 -17 263 -41 345 -54 176 -28
282 -40 274 -31 -3 3 -53 13 -110 21 -57 8 -174 25 -259 39 -85 14 -247 39
-360 56 -325 49 -464 71 -482 76 -10 3 -18 1 -18 -3z"/>
<path d="M5420 7472 c14 -5 106 -21 205 -36 99 -16 186 -30 194 -32 11 -4 13
-30 7 -147 -13 -294 -15 -403 -7 -362 7 30 24 366 26 505 0 12 -38 21 -180 42
-225 35 -279 41 -245 30z"/>
<path d="M5916 7368 c-9 -60 -38 -562 -34 -593 4 -34 12 60 33 384 7 122 15
225 17 227 3 3 310 -40 538 -75 l45 -6 0 -92 c0 -117 12 -108 17 12 l3 90 -80
12 c-162 26 -496 73 -515 73 -14 0 -20 -9 -24 -32z"/>
<path d="M1284 6731 c3 -4 45 -11 93 -14 48 -4 192 -14 318 -23 127 -9 231
-17 233 -18 3 -3 -18 -810 -21 -812 -1 -1 -65 2 -142 6 -226 13 -510 23 -505
17 3 -2 102 -10 220 -16 118 -6 265 -14 327 -17 l112 -6 5 33 c3 19 8 208 11
420 l6 386 -68 6 c-37 4 -171 13 -298 22 -126 8 -245 17 -263 19 -18 3 -30 1
-28 -3z"/>
<path d="M1250 6498 c0 -128 -2 -318 -5 -423 -3 -135 -2 -168 4 -115 12 104
20 770 9 770 -4 0 -8 -105 -8 -232z"/>
<path d="M2133 6644 c5 -5 88 -16 185 -25 97 -9 213 -20 257 -24 44 -4 78 -5
75 -2 -3 3 -100 15 -215 26 -116 12 -232 24 -260 27 -28 4 -46 2 -42 -2z"/>
<path d="M2075 6245 c0 -214 1 -301 2 -192 2 109 2 285 0 390 -1 106 -2 17 -2
-198z"/>
<path d="M5922 6595 c3 -3 106 -14 229 -25 123 -11 252 -23 287 -26 l62 -7 -1
34 c-2 31 -2 32 -6 6 -4 -27 -7 -28 -41 -23 -54 9 -461 46 -501 46 -19 0 -32
-2 -29 -5z"/>
<path d="M6636 6518 c-9 -88 -38 -878 -34 -953 2 -38 7 25 11 140 5 116 15
356 22 535 13 307 14 397 1 278z"/>
<path d="M2688 6430 c9 -173 9 -391 0 -500 -5 -68 -4 -80 5 -60 14 32 13 561
-1 640 -8 43 -9 25 -4 -80z"/>
<path d="M5930 6530 c0 -5 8 -10 18 -10 30 0 455 -39 496 -46 l38 -6 -5 -47
c-10 -79 -17 -528 -8 -494 5 18 9 99 10 180 1 82 5 199 9 261 l7 112 -30 5
c-16 3 -127 14 -245 25 -118 11 -232 23 -252 25 -22 3 -38 1 -38 -5z"/>
<path d="M1413 6480 c-60 -36 -57 -130 6 -239 37 -62 133 -171 152 -171 5 0
-18 27 -51 61 -33 33 -77 91 -97 127 -31 55 -37 77 -38 124 0 68 20 95 78 105
28 4 46 0 81 -21 25 -15 51 -36 57 -47 l11 -21 22 21 c75 70 192 34 190 -58
-2 -57 -57 -151 -131 -222 -35 -34 -62 -64 -59 -66 3 -3 38 28 78 68 136 136
164 265 68 314 -41 21 -77 19 -125 -10 l-42 -24 -24 26 c-49 53 -121 67 -176
33z"/>
<path d="M88 6307 c12 -13 22 -34 22 -48 0 -32 17 -49 50 -49 24 1 23 2 -7 15
-24 10 -33 21 -33 37 0 27 -26 68 -42 68 -6 0 -2 -10 10 -23z"/>
<path d="M186 6195 c-3 -8 -1 -15 4 -15 6 0 10 7 10 15 0 8 -2 15 -4 15 -2 0
-6 -7 -10 -15z"/>
<path d="M265 6144 l-40 -13 45 2 45 2 -3 -33 c-3 -30 0 -33 43 -52 38 -16 46
-24 40 -38 -17 -41 -16 -61 6 -91 12 -17 25 -29 27 -26 3 3 -5 16 -18 30 -22
24 -23 34 -5 92 6 20 1 25 -40 43 -43 18 -46 22 -40 48 9 41 -10 52 -60 36z"/>
<path d="M425 5872 c6 -4 18 -19 28 -34 17 -27 17 -28 -3 -48 -11 -11 -24 -20
-30 -20 -5 0 -16 -15 -24 -32 -17 -39 -43 -70 -71 -86 -11 -6 -15 -12 -9 -12
21 0 64 42 85 81 11 22 31 45 44 51 32 14 41 45 21 67 -9 10 -16 23 -16 29 0
7 -8 12 -17 12 -11 0 -14 -3 -8 -8z"/>
<path d="M2100 5868 c0 -4 53 -8 118 -8 66 0 188 -2 273 -5 98 -3 140 -1 114
4 -54 12 -505 20 -505 9z"/>
<path d="M907 5823 c-4 -3 -6 -189 -5 -412 1 -223 4 -356 5 -296 2 61 4 243 5
405 l3 295 35 -3 c87 -6 507 -32 529 -32 13 0 22 2 19 5 -3 3 -133 14 -289 25
-334 23 -294 22 -302 13z"/>
<path d="M1556 5420 c-4 -179 -6 -336 -4 -350 8 -50 19 270 16 470 l-3 205 -9
-325z"/>
<path d="M1265 5670 c-12 -4 -26 -15 -33 -23 -9 -11 -2 -9 27 5 35 17 45 18
76 8 36 -12 48 -31 18 -28 -40 3 -53 -4 -82 -47 -25 -37 -27 -43 -11 -35 11 6
20 17 20 24 0 25 36 46 78 46 l42 0 0 -59 c0 -33 -5 -72 -10 -88 -9 -26 -9
-27 5 -9 24 32 22 141 -3 170 -36 40 -85 54 -127 36z"/>
<path d="M1247 5506 c8 -40 -6 -94 -29 -116 -17 -15 -36 -20 -80 -20 -82 0
-122 -19 -158 -76 -40 -64 -38 -79 3 -18 30 46 98 95 105 75 3 -10 -29 -143
-59 -240 -22 -72 -23 -81 -9 -81 6 0 10 11 10 24 0 13 13 66 29 118 16 52 32
116 36 142 6 40 10 46 31 46 23 0 24 -1 18 -74 -5 -47 -3 -75 4 -80 17 -10
172 -30 179 -22 9 8 20 166 12 166 -4 0 -9 -34 -11 -75 -3 -42 -7 -78 -10 -80
-7 -7 -151 15 -160 24 -4 4 -5 36 -1 73 5 63 7 66 34 72 33 6 58 40 70 98 8
32 7 45 -4 56 -13 12 -14 10 -10 -12z"/>
<path d="M130 5463 c-33 -86 -35 -160 -11 -295 23 -128 21 -157 -19 -259 -12
-29 -19 -58 -16 -66 4 -10 34 -13 128 -12 68 0 132 5 143 10 17 8 17 9 -7 6
-25 -4 -26 -2 -32 62 -4 36 -18 117 -33 179 l-26 113 32 128 c17 70 31 138 30
152 -1 41 -68 -233 -69 -280 0 -25 9 -77 20 -115 20 -71 41 -224 33 -238 -5
-9 -197 -11 -205 -3 -3 3 5 32 18 65 36 88 38 131 15 276 -22 138 -20 189 15
286 22 64 9 56 -16 -9z"/>
<path d="M1366 5339 c7 -8 15 -63 19 -123 4 -60 11 -130 16 -155 8 -49 4 90
-7 202 -5 44 -3 57 8 57 23 0 57 -30 78 -68 10 -20 19 -31 20 -23 0 7 -9 29
-21 48 -21 33 -49 53 -99 68 -20 7 -23 5 -14 -6z"/>
<path d="M7295 5280 l-210 -6 285 -2 c171 -1 291 2 300 8 16 10 9 10 -375 0z"/>
<path d="M7060 5259 c0 -2 -29 -76 -65 -164 -35 -87 -62 -161 -60 -164 3 -2 6
-2 8 0 13 16 128 322 123 326 -3 4 -6 4 -6 2z"/>
<path d="M905 4970 c4 -6 117 -10 305 -10 188 0 301 4 305 10 4 7 -100 10
-305 10 -205 0 -309 -3 -305 -10z"/>
<path d="M6050 4912 c0 -5 62 -12 138 -16 75 -4 225 -14 332 -22 210 -15 647
-41 825 -48 91 -4 99 -4 50 4 -33 5 -222 18 -420 30 -198 11 -452 27 -565 35
-113 8 -240 17 -282 20 -43 3 -78 1 -78 -3z"/>
<path d="M7535 4830 l-40 -7 45 -1 c25 0 68 3 95 8 l50 7 -55 0 c-30 0 -73 -3
-95 -7z"/>
<path d="M7460 4744 c0 -27 -7 -206 -15 -399 -8 -192 -14 -375 -14 -405 l1
-55 8 50 c10 66 34 844 26 852 -3 4 -6 -16 -6 -43z"/>
<path d="M7633 4673 c9 -2 25 -2 35 0 9 3 1 5 -18 5 -19 0 -27 -2 -17 -5z"/>
<path d="M635 4619 c-17 -5 -50 -25 -73 -45 -45 -38 -57 -70 -22 -59 10 3 36
2 56 -4 28 -8 35 -8 26 1 -7 7 -30 12 -53 13 l-41 0 42 37 c45 40 125 64 176
53 22 -5 25 -4 14 4 -18 13 -83 13 -125 0z"/>
<path d="M7587 4425 c-4 -115 -10 -273 -13 -350 -4 -77 -4 -138 -1 -135 7 7
30 623 25 665 -2 17 -7 -64 -11 -180z"/>
<path d="M735 4589 c-48 -19 -85 -50 -85 -71 0 -6 13 3 28 20 17 18 50 36 82
46 48 14 56 14 76 1 13 -8 32 -15 43 -15 11 0 22 -4 26 -9 3 -5 19 -12 36 -16
17 -4 33 -13 36 -21 3 -8 12 -14 20 -14 8 0 28 -14 44 -31 20 -22 35 -30 49
-26 38 10 66 -57 35 -83 -11 -9 -12 -17 -5 -30 15 -28 12 -40 -12 -50 -23 -10
-23 -10 2 -7 22 2 25 7 25 39 0 20 3 40 8 44 4 4 7 22 7 39 0 38 -30 70 -58
61 -14 -5 -24 1 -35 18 -9 13 -27 28 -39 32 -13 4 -29 15 -36 25 -7 11 -24 19
-37 19 -13 0 -27 5 -30 10 -3 6 -16 10 -28 10 -12 0 -31 7 -41 15 -25 19 -49
18 -111 -6z"/>
<path d="M371 4425 c-17 -20 -31 -42 -31 -50 0 -7 -3 -20 -6 -28 -3 -8 1 -21
8 -29 7 -7 18 -23 24 -33 8 -14 28 -22 69 -28 32 -5 68 -15 79 -23 29 -20 60
-17 82 8 l19 21 -33 -19 c-30 -17 -34 -17 -65 -2 -42 22 -76 32 -106 33 -27 0
-59 44 -60 82 -1 12 13 38 30 58 18 20 29 38 27 41 -3 2 -19 -11 -37 -31z"/>
<path d="M856 4275 c16 -40 99 -48 130 -14 20 23 17 23 -28 0 -22 -11 -33 -11
-58 -1 -16 7 -30 16 -30 21 0 5 -4 9 -10 9 -5 0 -7 -7 -4 -15z"/>
<path d="M721 4250 c-28 -24 -49 -25 -79 -4 -13 9 -22 11 -22 4 0 -12 42 -30
70 -30 10 0 32 11 47 25 33 29 19 33 -16 5z"/>
<path d="M1017 4127 c-4 -70 -11 -135 -14 -143 -3 -7 -1 -14 5 -14 13 0 24
123 20 215 -3 60 -4 52 -11 -58z"/>
<path d="M422 4170 c0 -25 7 -88 16 -140 l17 -95 46 -23 c86 -43 350 -40 443
5 20 9 36 20 36 24 0 4 -21 -2 -47 -14 -44 -20 -64 -22 -218 -22 -150 0 -175
2 -210 20 -44 22 -42 18 -73 225 -8 58 -9 60 -10 20z"/>
<path d="M7615 3930 c-4 -6 6 -7 27 -3 44 8 48 13 10 13 -17 0 -34 -4 -37 -10z"/>
<path d="M110 3891 c0 -5 13 -37 29 -72 94 -205 142 -321 156 -379 30 -118 34
-130 28 -75 -8 74 -44 175 -123 346 -38 85 -70 157 -70 161 0 11 75 -28 116
-59 70 -53 116 -187 133 -388 l8 -90 2 71 c3 158 -46 324 -117 397 -46 48
-162 111 -162 88z"/>
<path d="M524 3728 l1 -143 -57 -140 c-31 -77 -68 -185 -83 -240 -15 -55 -30
-105 -32 -112 -3 -7 -1 -13 5 -13 5 0 13 16 16 35 12 64 72 247 116 355 40 98
44 113 49 225 l6 120 13 -53 c6 -29 12 -70 12 -90 l0 -37 46 53 c25 28 50 52
55 52 5 0 -14 -37 -43 -82 -66 -106 -138 -258 -176 -373 -37 -113 -46 -155
-34 -155 5 0 13 21 17 46 17 116 144 394 242 532 25 35 43 66 40 68 -8 9 -47
-15 -93 -58 -42 -39 -44 -39 -44 -16 0 36 -29 141 -44 156 -10 10 -12 -15 -12
-130z"/>
<path d="M680 3833 c-73 -9 -45 -18 53 -18 97 0 105 -2 166 -35 89 -48 174
-151 216 -260 8 -19 24 -73 36 -120 12 -46 24 -79 26 -73 8 22 -47 205 -78
263 -65 123 -163 206 -279 236 -54 14 -72 15 -140 7z"/>
<path d="M785 3765 c6 -2 29 -9 52 -15 58 -15 136 -88 189 -179 24 -41 44 -69
44 -60 0 23 -66 129 -108 172 -44 46 -120 87 -159 86 -15 0 -23 -2 -18 -4z"/>
<path d="M429 3701 c-24 -21 -42 -41 -39 -44 3 -3 28 15 55 39 28 24 45 44 39
44 -6 0 -31 -18 -55 -39z"/>
<path d="M1299 3359 c-55 -55 -123 -189 -147 -287 -9 -40 -19 -72 -22 -72 -3
0 -22 34 -43 75 -44 85 -144 199 -206 233 -40 23 -56 17 -25 -9 34 -28 147
-203 190 -294 25 -53 48 -94 51 -91 14 14 -104 228 -183 331 -42 55 -13 41 48
-23 69 -73 126 -159 154 -237 24 -65 23 -66 40 45 13 91 102 278 154 325 11
10 20 16 20 13 0 -3 -17 -48 -39 -99 -47 -114 -101 -271 -101 -293 0 -28 16
-17 48 33 38 58 122 136 183 170 l44 24 -64 -69 c-77 -84 -131 -155 -160 -212
-32 -64 -11 -50 26 16 34 62 168 222 208 248 32 21 32 38 2 30 -68 -17 -196
-115 -238 -182 -12 -19 -23 -33 -26 -31 -6 7 54 177 99 281 50 115 47 136 -13
75z"/>
<path d="M1561 3225 c-43 -49 -101 -165 -83 -165 5 0 18 24 31 54 12 29 38 72
58 95 19 23 33 44 31 47 -3 2 -19 -11 -37 -31z"/>
<path d="M405 3068 c-51 -26 -108 -80 -145 -138 -29 -45 -61 -146 -59 -185 1
-20 1 -20 6 0 15 73 52 161 82 202 37 48 126 123 147 123 14 0 34 -75 34 -128
0 -21 3 -41 6 -45 4 -3 30 12 58 33 64 49 171 90 232 90 l46 0 -39 -40 c-36
-38 -154 -221 -147 -229 1 -2 17 7 33 19 49 34 146 70 211 77 33 3 60 2 59 -3
0 -5 -19 -25 -42 -44 -55 -46 -183 -180 -172 -180 8 0 237 219 243 233 6 13
-102 7 -163 -9 -33 -8 -75 -24 -92 -34 -18 -11 -33 -15 -33 -9 0 22 83 139
130 183 28 26 50 50 50 53 0 11 -137 -7 -192 -26 -31 -11 -80 -36 -110 -55
-46 -31 -53 -34 -56 -19 -13 79 -25 123 -35 136 -11 14 -16 14 -52 -5z"/>
<path d="M56 3036 c3 -7 14 -53 24 -102 12 -57 19 -77 19 -54 0 19 -6 59 -13
87 -8 29 -11 55 -7 57 4 3 37 -22 73 -55 37 -32 70 -59 74 -59 13 0 -57 69
-107 106 -49 36 -72 43 -63 20z"/>
<path d="M131 2677 c-1 -50 31 -130 65 -158 10 -8 4 10 -16 44 -18 32 -36 81
-40 110 l-8 52 -1 -48z"/>
<path d="M865 2618 c-22 -5 -58 -7 -80 -4 -32 5 -36 4 -21 -5 10 -6 42 -9 72
-7 30 3 54 1 54 -3 0 -26 -142 -112 -250 -151 -41 -15 -68 -27 -59 -27 26 -1
125 35 190 70 63 34 149 107 149 127 0 14 0 14 -55 0z"/>
<path d="M1160 2622 c0 -4 15 -6 33 -4 18 2 41 -3 52 -11 19 -15 18 -16 -23
-32 -23 -10 -42 -22 -42 -29 0 -6 16 -20 36 -31 35 -19 61 -51 49 -63 -3 -3
-26 0 -52 6 -25 7 -48 10 -51 8 -6 -7 33 -21 81 -30 35 -7 37 -5 37 19 0 25
-27 59 -66 81 -17 11 -16 13 19 27 61 26 43 67 -30 67 -24 0 -43 -4 -43 -8z"/>
<path d="M506 2594 c-45 -16 -126 -66 -126 -76 0 -14 13 -9 36 13 12 11 52 32
89 45 66 24 114 29 149 15 18 -7 16 -11 -18 -49 -22 -24 -65 -54 -104 -73 -78
-36 -152 -86 -152 -100 0 -6 17 2 38 19 20 16 71 45 113 65 106 51 179 133
133 151 -28 11 -118 5 -158 -10z"/>
<path d="M520 2391 c0 -6 15 -11 33 -11 52 0 134 -46 163 -91 13 -21 24 -41
24 -44 0 -12 -146 -4 -197 11 -62 18 -156 15 -176 -5 -9 -10 -6 -11 18 -4 43
12 111 8 185 -10 36 -8 92 -14 125 -12 52 2 60 5 57 21 -7 40 -53 94 -101 119
-57 29 -131 44 -131 26z"/>
<path d="M1210 2338 c-108 -26 -212 -32 -317 -19 -51 6 -100 14 -110 18 -12 4
-15 3 -8 -4 16 -16 132 -33 231 -33 119 0 306 35 284 53 -3 2 -39 -5 -80 -15z"/>
<path d="M760 2302 c53 -37 90 -75 96 -101 4 -14 13 -39 21 -54 8 -16 12 -31
9 -34 -3 -4 -34 6 -70 21 -73 31 -166 57 -177 50 -5 -3 -21 5 -37 16 -16 12
-49 23 -73 26 l-44 4 55 -19 c89 -32 123 -87 151 -243 7 -38 9 -71 6 -75 -4
-3 -28 12 -55 34 -26 22 -72 56 -102 75 -58 36 -173 82 -192 76 -6 -2 23 -17
65 -32 77 -28 180 -88 206 -119 24 -30 82 -60 93 -49 13 13 -24 198 -52 252
-19 37 -19 40 -3 40 17 0 144 -43 210 -71 18 -7 35 -10 39 -7 8 9 -43 137 -65
162 -18 21 -86 66 -98 65 -5 0 3 -8 17 -17z"/>
<path d="M80 2263 c0 -6 4 -14 9 -17 19 -12 49 -94 56 -151 9 -79 14 -95 29
-95 36 0 176 162 176 202 0 7 -14 -10 -31 -39 -37 -65 -139 -161 -149 -141 -4
7 -10 41 -13 75 -4 35 -13 78 -21 95 -18 40 -55 88 -56 71z"/>
<path d="M464 1950 c-79 -37 -236 -71 -351 -77 -62 -3 -113 -10 -113 -14 0
-23 198 -2 348 37 85 22 172 57 172 69 0 8 -13 4 -56 -15z"/>
<path d="M655 1818 c-2 -13 -9 -110 -15 -217 -15 -264 -34 -311 -165 -407 -75
-55 -79 -72 -5 -24 68 44 135 120 155 178 9 26 20 108 25 187 5 77 13 177 16
223 6 77 0 110 -11 60z"/>
<path d="M690 1641 c0 -8 19 -33 43 -56 42 -43 47 -45 184 -71 14 -3 31 -20
43 -43 33 -65 83 -88 125 -57 18 13 15 14 -26 9 -41 -5 -48 -2 -67 22 -12 15
-22 34 -22 41 0 21 -40 41 -102 53 -74 13 -109 32 -147 78 -17 21 -31 31 -31
24z"/>
<path d="M953 1295 c-270 -127 -632 -240 -848 -266 -115 -14 -125 -24 -17 -16
138 10 356 67 587 152 196 73 407 170 358 164 -5 0 -40 -16 -80 -34z"/>
<path d="M1288 1059 c-16 -6 -28 -15 -28 -21 0 -5 9 -6 23 -1 12 4 44 7 71 6
32 -1 45 2 39 8 -15 15 -75 20 -105 8z"/>
<path d="M555 935 c-89 -37 -242 -76 -420 -105 -113 -18 -115 -19 -40 -14 170
11 369 59 497 118 94 44 67 45 -37 1z"/>
<path d="M7277 393 c-72 -244 -110 -369 -114 -380 -3 -7 0 -13 6 -13 9 0 83
217 97 288 4 18 10 32 15 32 10 0 53 -82 63 -120 16 -60 71 -200 78 -200 13 0
9 17 -16 78 -12 31 -29 80 -36 107 -17 63 -36 103 -65 135 -23 25 -23 26 -9
89 22 93 11 84 -19 -16z"/>
</g>
</svg>
